<?xml version="1.0" standalone="no"?><!DOCTYPE svg PUBLIC "-//W3C//DTD SVG 1.1//EN" "http://www.w3.org/Graphics/SVG/1.1/DTD/svg11.dtd"><svg t="1779710729687" class="icon" viewBox="0 0 1024 1024" version="1.1" xmlns="http://www.w3.org/2000/svg" p-id="20765" xmlns:xlink="http://www.w3.org/1999/xlink" width="200" height="200"><path d="M652.501333 268.501333a42.666667 42.666667 0 0 0 0 60.330667L835.669333 512l-183.168 183.168a42.666667 42.666667 0 0 0 0 60.330667 42.666667 42.666667 0 0 0 60.330667 0l213.333333-213.333334a42.666667 42.666667 0 0 0 0-60.330666l-213.333333-213.333334a42.666667 42.666667 0 0 0-60.330667 0z" p-id="20766"></path><path d="M384 469.333333a42.666667 42.666667 0 0 0-42.666667 42.666667 42.666667 42.666667 0 0 0 42.666667 42.666667h512a42.666667 42.666667 0 0 0 42.666667-42.666667 42.666667 42.666667 0 0 0-42.666667-42.666667z" p-id="20767"></path><path d="M213.333333 85.333333C143.146667 85.333333 85.333333 143.146667 85.333333 213.333333v597.333334c0 70.186667 57.813333 128 128 128h170.666667a42.666667 42.666667 0 0 0 42.666667-42.666667 42.666667 42.666667 0 0 0-42.666667-42.666667H213.333333c-24.064 0-42.666667-18.602667-42.666666-42.666666V213.333333c0-24.064 18.602667-42.666667 42.666666-42.666666h170.666667a42.666667 42.666667 0 0 0 42.666667-42.666667 42.666667 42.666667 0 0 0-42.666667-42.666667z" p-id="20768"></path></svg>