<svg class="icon" style="width: 1em;height: 1em;vertical-align: middle;fill: currentColor;overflow: hidden;" viewBox="0 0 1024 1024" version="1.1" xmlns="http://www.w3.org/2000/svg"><path d="M554.666667 725.333333a42.666667 42.666667 0 1 0-85.333334 0l21.333334 192a21.333333 21.333333 0 0 0 42.666666 0zM512 640c-20.138667 0-40.874667 6.485333-57.685333 21.418667-16.768 14.933333-27.648 39.04-27.648 63.914666a42.666667 42.666667 0 0 0 0.256 4.736l21.333333 192-0.256-4.736c0 17.792 8.192 36.522667 20.992 47.914667S497.152 981.333333 512 981.333333c14.805333 0 30.208-4.693333 43.008-16.085333 12.8-11.392 20.992-30.122667 20.992-47.914667l-0.256 4.736 21.333333-192A42.666667 42.666667 0 0 0 597.333333 725.333333c0-24.874667-10.88-48.981333-27.648-63.914666A85.973333 85.973333 0 0 0 512 640zM512 42.666667C301.653333 42.666667 151.381333 182.528 102.485333 349.482667c-48.853333 166.997333 2.304 365.781333 179.626667 479.146666a42.666667 42.666667 0 0 0 58.88-12.885333 42.666667 42.666667 0 0 0-12.928-58.88c-146.005333-93.44-183.168-248.32-143.658667-383.36C223.914667 238.464 338.773333 128 512 128c173.226667 0 288.085333 110.506667 327.594667 245.504 39.509333 135.04 2.346667 289.92-143.658667 383.317333a42.666667 42.666667 0 0 0-12.928 58.922667 42.666667 42.666667 0 0 0 58.88 12.928c177.322667-113.408 228.48-312.192 179.626667-479.146667C872.618667 182.485333 722.346667 42.666667 512 42.666667zM512 213.333333c-208.256 0-329.813333 242.944-204.8 409.6a42.666667 42.666667 0 0 0 59.733333 8.533334 42.666667 42.666667 0 0 0 8.533334-59.733334A169.258667 169.258667 0 0 1 512 298.666667a169.258667 169.258667 0 0 1 136.533333 273.066666 42.666667 42.666667 0 0 0 8.533334 59.733334 42.666667 42.666667 0 0 0 59.733333-8.533334c125.013333-166.656 3.456-409.6-204.8-409.6zM554.666667 469.333333a42.666667 42.666667 0 0 1-42.666667 42.666667 42.666667 42.666667 0 0 1-42.666667-42.666667 42.666667 42.666667 0 0 1 42.666667-42.666666 42.666667 42.666667 0 0 1 42.666667 42.666666zM512 384c-46.634667 0-85.333333 38.698667-85.333333 85.333333s38.698667 85.333333 85.333333 85.333334 85.333333-38.698667 85.333333-85.333334-38.698667-85.333333-85.333333-85.333333z" /></svg>