<?xml version="1.0" standalone="no"?><!DOCTYPE svg PUBLIC "-//W3C//DTD SVG 1.1//EN" "http://www.w3.org/Graphics/SVG/1.1/DTD/svg11.dtd"><svg t="1779710542402" class="icon" viewBox="0 0 1024 1024" version="1.1" xmlns="http://www.w3.org/2000/svg" p-id="19983" xmlns:xlink="http://www.w3.org/1999/xlink" width="200" height="200"><path d="M512 42.666667C253.312 42.666667 42.666667 253.312 42.666667 512s210.645333 469.333333 469.333333 469.333333 469.333333-210.645333 469.333333-469.333333S770.688 42.666667 512 42.666667z m0 85.333333c212.565333 0 384 171.434667 384 384s-171.434667 384-384 384-384-171.434667-384-384 171.434667-384 384-384z" p-id="19984"></path><path d="M347.306667 555.093333a42.666667 42.666667 0 0 0-31.573334 8.106667 42.666667 42.666667 0 0 0-8.533333 59.733333S382.549333 725.333333 512 725.333333s204.8-102.4 204.8-102.4a42.666667 42.666667 0 0 0-8.533333-59.733333 42.666667 42.666667 0 0 0-59.733334 8.533333S595.882667 640 512 640s-136.533333-68.266667-136.533333-68.266667a42.666667 42.666667 0 0 0-28.16-16.64zM384 341.333333a42.666667 42.666667 0 0 0-42.666667 42.666667 42.666667 42.666667 0 0 0 42.666667 42.666667h0.426667a42.666667 42.666667 0 0 0 42.666666-42.666667 42.666667 42.666667 0 0 0-42.666666-42.666667zM640 341.333333a42.666667 42.666667 0 0 0-42.666667 42.666667 42.666667 42.666667 0 0 0 42.666667 42.666667h0.426667a42.666667 42.666667 0 0 0 42.666666-42.666667 42.666667 42.666667 0 0 0-42.666666-42.666667z" p-id="19985"></path></svg>