<?xml version="1.0" standalone="no"?><!DOCTYPE svg PUBLIC "-//W3C//DTD SVG 1.1//EN" "http://www.w3.org/Graphics/SVG/1.1/DTD/svg11.dtd"><svg t="1779710616403" class="icon" viewBox="0 0 1024 1024" version="1.1" xmlns="http://www.w3.org/2000/svg" p-id="20297" xmlns:xlink="http://www.w3.org/1999/xlink" width="200" height="200"><path d="M512 85.333333C371.114667 85.333333 256 200.448 256 341.333333s115.114667 256 256 256 256-115.114667 256-256-115.114667-256-256-256z m0 85.333334c94.762667 0 170.666667 75.904 170.666667 170.666666s-75.904 170.666667-170.666667 170.666667-170.666667-75.904-170.666667-170.666667 75.904-170.666667 170.666667-170.666666z" p-id="20298"></path><path d="M512 512c-211.584 0-384 172.416-384 384a42.666667 42.666667 0 0 0 42.666667 42.666667 42.666667 42.666667 0 0 0 42.666666-42.666667c0-165.461333 133.205333-298.666667 298.666667-298.666667s298.666667 133.205333 298.666667 298.666667a42.666667 42.666667 0 0 0 42.666666 42.666667 42.666667 42.666667 0 0 0 42.666667-42.666667c0-211.584-172.416-384-384-384z" p-id="20299"></path></svg>